<svg width="53" height="25" viewBox="0 0 53 25" fill="none" xmlns="http://www.w3.org/2000/svg">
<path d="M7.07617 18.6719V7.07031C7.07617 7.07031 9.47363 7.07031 14.2686 7.07031C15.4307 7.07031 16.4268 7.6416 17.2568 8.78418C18.0967 9.91699 18.5166 11.2793 18.5166 12.8711C18.5166 14.4727 18.0967 15.8398 17.2568 16.9727C16.4268 18.1055 15.4307 18.6719 14.2686 18.6719H7.07617ZM8.13086 17.6172H14.2686C15.1377 17.6172 15.8799 17.1533 16.4951 16.2256C17.1201 15.2979 17.4326 14.1797 17.4326 12.8711C17.4326 11.5527 17.1201 10.4346 16.4951 9.5166C15.8799 8.58887 15.1377 8.125 14.2686 8.125H8.13086V17.6172ZM6.02148 19.7266H14.2686C15.7236 19.7266 16.9736 19.0576 18.0186 17.7197C19.0732 16.3721 19.6006 14.7559 19.6006 12.8711C19.6006 11.6309 19.3564 10.4834 18.8682 9.42871C18.3896 8.37402 17.7402 7.54395 16.9199 6.93848C16.1094 6.32324 15.2256 6.01562 14.2686 6.01562H6.02148V19.7266ZM4.9668 20.7812V4.96094H14.2686C15.4111 4.96094 16.4756 5.3125 17.4619 6.01562C18.4482 6.71875 19.2295 7.68066 19.8057 8.90137C20.3916 10.1123 20.6846 11.4355 20.6846 12.8711C20.6846 14.2969 20.3916 15.6201 19.8057 16.8408C19.2295 18.0615 18.4482 19.0234 17.4619 19.7266C16.4756 20.4297 15.4111 20.7812 14.2686 20.7812H4.9668ZM3.91211 21.8359H14.2686C15.6064 21.8359 16.8467 21.4355 17.9893 20.6348C19.1416 19.834 20.0596 18.7451 20.7432 17.3682C21.4268 15.9912 21.7686 14.4922 21.7686 12.8711C21.7686 11.2598 21.4268 9.76562 20.7432 8.38867C20.0596 7.00195 19.1416 5.9082 17.9893 5.10742C16.8369 4.30664 15.5967 3.90625 14.2686 3.90625H3.91211V21.8359ZM2.85742 22.8906V2.85156H14.2686C15.792 2.85156 17.2129 3.30078 18.5312 4.19922C19.8496 5.08789 20.8994 6.30371 21.6807 7.84668C22.4619 9.38965 22.8525 11.0645 22.8525 12.8711C22.8525 14.6777 22.4619 16.3525 21.6807 17.8955C20.8994 19.4385 19.8496 20.6592 18.5312 21.5576C17.2129 22.4463 15.792 22.8906 14.2686 22.8906H2.85742ZM1.80273 23.9453H14.2686C15.5479 23.9453 16.7832 23.6523 17.9746 23.0664C19.166 22.4805 20.1963 21.6943 21.0654 20.708C21.9346 19.7217 22.6279 18.5449 23.1455 17.1777C23.6729 15.8008 23.9365 14.3652 23.9365 12.8711C23.9365 11.377 23.6729 9.94629 23.1455 8.5791C22.6279 7.21191 21.9346 6.03516 21.0654 5.04883C20.1963 4.05273 19.166 3.26172 17.9746 2.67578C16.7832 2.08984 15.5479 1.79688 14.2686 1.79688H1.80273V23.9453ZM14.2686 25H0.748047V0.742188H14.2686C16.1729 0.742188 17.9502 1.28418 19.6006 2.36816C21.251 3.45215 22.5645 4.92676 23.541 6.79199C24.5273 8.65723 25.0205 10.6836 25.0205 12.8711C25.0205 14.5117 24.7275 16.084 24.1416 17.5879C23.5654 19.082 22.7939 20.3711 21.8271 21.4551C20.8604 22.5391 19.7129 23.4033 18.3848 24.0479C17.0664 24.6826 15.6943 25 14.2686 25ZM44.8105 16.1523L45.8652 14.1602V25H44.8105V16.1523ZM46.9199 12.1094L47.9746 10.1172V25H46.9199V12.1094ZM49.0293 8.125L50.084 6.11816V25H49.0293V8.125ZM41.9541 15.6543L41.3535 14.5557L48.6191 0.742188H49.8057L41.9541 15.6543ZM40.7383 13.3545L40.123 12.2412L46.2168 0.742188H47.418L40.7383 13.3545ZM33.6777 14.2773L34.7324 16.2695V25H33.6777V14.2773ZM31.5684 10.2637L32.623 12.2559V25H31.5684V10.2637ZM29.459 6.25L30.5137 8.25684V25H29.459V6.25ZM37.9844 18.6719H36.7979L28.4043 2.74902V25H27.3496V0.742188H28.5361L37.9844 18.6719ZM40.3721 18.6719H39.1709L29.7373 0.742188H30.9385L40.3721 18.6719ZM51.1387 2.74902L42.7451 18.6719H41.5439L32.125 0.742188H33.3115L42.1592 17.5586L50.9922 0.742188H52.1934V25H51.1387V2.74902Z" fill="white"/>
</svg>
